<svg xmlns="http://www.w3.org/2000/svg" xmlns:xlink="http://www.w3.org/1999/xlink">

  <!-- ViewBox and Polygon taken from "Star.svg" -->
  <symbol id="icon-star" viewBox="0 0 95 95">
    <polygon points="47.5 0 62.18 31.27 95 36.29 71.25 60.63 76.86 95 47.5 78.77 18.14 95 23.75 60.63 0 36.29 32.82 31.27 47.5 0"/>
  </symbol>

  <!-- ViewBox and Polygon taken from "Flower.svg" -->
  <symbol id="icon-flower" viewBox="0 0 95 95">
    <path class="cls-1" d="M96.9,36.75A14.87,14.87,0,0,0,85.62,26.54a14.39,14.39,0,0,0-5.57-14A15.44,15.44,0,0,0,63.68,11.2a15.27,15.27,0,0,0-27-1,15.47,15.47,0,0,0-15.36,1.3A14.43,14.43,0,0,0,15.16,25.2,14.93,14.93,0,0,0,3.48,35a14.29,14.29,0,0,0,3.3,14.62A14.3,14.3,0,0,0,3.19,64.15a14.89,14.89,0,0,0,11.48,10A14.41,14.41,0,0,0,20.52,88a15.42,15.42,0,0,0,15.34,1.59,15.28,15.28,0,0,0,26.49.51,15.42,15.42,0,0,0,15.38-1,14.43,14.43,0,0,0,6.41-13.61A15,15,0,0,0,96,65.92a14.31,14.31,0,0,0-3-14.69A14.31,14.31,0,0,0,96.9,36.75" transform="translate(-2.5 -2.5)"/>
  </symbol>

  <!-- ViewBox and Polygon taken from "8 Point Star.svg" -->
  <symbol id="icon-8pt-star" viewBox="0 0 95 95">
    <path class="cls-1" d="M83.59,63.91,97.5,50,83.59,36.09V16.41H63.91L50,2.5,36.09,16.41H16.41V36.09L2.5,50,16.41,63.91V83.59H36.09L50,97.5,63.91,83.59H83.59Z" transform="translate(-2.5 -2.5)"/>
  </symbol>

</svg>